<?xml version="1.0" standalone="no"?>
<!DOCTYPE svg PUBLIC "-//W3C//DTD SVG 20010904//EN"
 "http://www.w3.org/TR/2001/REC-SVG-20010904/DTD/svg10.dtd">
<svg version="1.0" xmlns="http://www.w3.org/2000/svg"
 width="700.000000pt" height="700.000000pt" viewBox="0 0 700.000000 700.000000"
 preserveAspectRatio="xMidYMid meet">
<metadata>
Created by potrace 1.11, written by Peter Selinger 2001-2013
</metadata>
<g transform="translate(0.000000,700.000000) scale(0.100000,-0.100000)"
fill="#000000" stroke="none">
<path d="M0 3500 l0 -3500 3500 0 3500 0 0 3500 0 3500 -3500 0 -3500 0 0
-3500z m3390 0 l0 -3280 -1582 2 -1583 3 -3 983 -2 982 1205 0 1205 0 0 2295
0 2295 380 0 380 0 0 -3280z m980 985 l0 -2295 1205 0 1205 0 -2 -983 -3 -982
-1582 -3 -1583 -2 0 3280 0 3280 380 0 380 0 0 -2295z"/>
</g>
</svg>
