<?xml version="1.0" standalone="no"?>
<!DOCTYPE svg PUBLIC "-//W3C//DTD SVG 20010904//EN"
 "http://www.w3.org/TR/2001/REC-SVG-20010904/DTD/svg10.dtd">
<svg version="1.0" xmlns="http://www.w3.org/2000/svg"
 width="700.000000pt" height="700.000000pt" viewBox="0 0 700.000000 700.000000"
 preserveAspectRatio="xMidYMid meet">
<metadata>
Created by potrace 1.11, written by Peter Selinger 2001-2013
</metadata>
<g transform="translate(0.000000,700.000000) scale(0.100000,-0.100000)"
fill="#000000" stroke="none">
<path d="M0 3500 l0 -3500 3500 0 3500 0 0 3500 0 3500 -3500 0 -3500 0 0
-3500z m3390 0 l0 -3270 -1580 0 -1580 0 0 975 0 975 1200 0 1200 0 0 2295 0
2295 380 0 380 0 0 -3270z m980 975 l0 -2295 1200 0 1200 0 0 -975 0 -975
-1580 0 -1580 0 0 3270 0 3270 380 0 380 0 0 -2295z"/>
</g>
</svg>
